HIERARCHY
ROOT __0
{
	OFFSET 0.0 0.0 0.0
	CHANNELS 0
	JOINT spine.003
	{
		OFFSET 0.000000 0.005900 -0.962630
		CHANNELS 6 Xposition Yposition Zposition Xrotation Yrotation Zrotation
		JOINT spine.004
		{
			OFFSET 0.000000 0.005500 0.722100
			CHANNELS 6 Xposition Yposition Zposition Xrotation Yrotation Zrotation
			End Site
			{
				OFFSET 0.000000 -0.011400 0.240468
			}
		}
		JOINT upper_arm.L
		{
			OFFSET 0.353845 0.001758 0.555896
			CHANNELS 6 Xposition Yposition Zposition Xrotation Yrotation Zrotation
			JOINT forearm.L
			{
				OFFSET 0.222524 -0.007658 0.004139
				CHANNELS 3 Xrotation Yrotation Zrotation
				JOINT hand.L
				{
					OFFSET 0.162923 0.000000 -0.001895
					CHANNELS 3 Xrotation Yrotation Zrotation
					End Site
					{
						OFFSET 0.259023 0.000000 -0.003416
					}
				}
			}
		}
		JOINT upper_arm.R
		{
			OFFSET -0.353845 0.001758 0.555896
			CHANNELS 6 Xposition Yposition Zposition Xrotation Yrotation Zrotation
			JOINT forearm.R
			{
				OFFSET -0.222524 -0.007658 0.004139
				CHANNELS 3 Xrotation Yrotation Zrotation
				JOINT hand.R
				{
					OFFSET -0.162923 0.000000 -0.001895
					CHANNELS 3 Xrotation Yrotation Zrotation
					End Site
					{
						OFFSET -0.259023 0.000000 -0.003416
					}
				}
			}
		}
	}
	JOINT thigh.L
	{
		OFFSET 0.247996 0.012400 -0.976727
		CHANNELS 6 Xposition Yposition Zposition Xrotation Yrotation Zrotation
		JOINT shin.L
		{
			OFFSET 0.001113 -0.041000 -0.307776
			CHANNELS 3 Xrotation Yrotation Zrotation
			End Site
			{
				OFFSET -0.001985 0.044800 -0.273070
			}
		}
	}
	JOINT thigh.R
	{
		OFFSET -0.247996 0.012400 -0.976727
		CHANNELS 6 Xposition Yposition Zposition Xrotation Yrotation Zrotation
		JOINT shin.R
		{
			OFFSET -0.001113 -0.041000 -0.307776
			CHANNELS 3 Xrotation Yrotation Zrotation
			End Site
			{
				OFFSET 0.001985 0.044800 -0.273070
			}
		}
	}
}
MOTION
Frames: 11
Frame Time: 0.041667
0.000000 0.005900 -0.962630 -0.000000 0.000000 -0.000000 0.000000 0.005500 0.722100 -0.000000 0.000000 -0.000000 0.353845 0.001758 0.555896 0.941017 25.557987 -0.205636 -0.000004 -30.048714 -0.000003 -0.000001 -32.054679 -0.000004 -0.353845 0.001758 0.555896 0.941017 -25.557987 0.205635 -0.000005 30.048714 0.000003 -0.000001 32.054679 0.000005 0.247996 0.012400 -0.976726 0.000000 -0.000000 0.000000 0.000001 0.000000 -0.000000 -0.247996 0.012400 -0.976726 0.000000 0.000000 -0.000000 0.000001 -0.000000 0.000000 
0.000000 0.005900 -0.962630 -0.000000 0.000000 -0.000000 0.000000 0.005500 0.722100 -0.000000 0.000000 -0.000000 0.353845 0.001758 0.555896 1.169197 30.727775 -0.311818 -0.000004 -27.947633 -0.000002 -0.000002 -31.150720 -0.000004 -0.353845 0.001758 0.555896 1.169197 -30.727781 0.311817 -0.000004 27.947630 0.000001 -0.000002 31.150717 0.000004 0.247996 0.012400 -0.976726 0.000000 -0.000000 0.000000 0.000001 0.000000 -0.000000 -0.247996 0.012400 -0.976726 0.000000 0.000000 -0.000000 0.000001 -0.000000 0.000000 
0.000000 0.005900 -0.962630 -0.000000 0.000000 -0.000000 0.000000 0.005500 0.722100 -0.000000 0.000000 -0.000000 0.353845 0.001758 0.555896 1.409802 35.640719 -0.442156 -0.000004 -25.816959 -0.000001 -0.000002 -30.182367 -0.000004 -0.353845 0.001758 0.555896 1.409802 -35.640726 0.442155 -0.000003 25.816968 0.000001 -0.000002 30.182360 0.000004 0.247996 0.012400 -0.976726 0.000000 -0.000000 0.000000 0.000001 0.000000 -0.000000 -0.247996 0.012400 -0.976726 0.000000 0.000000 -0.000000 0.000001 -0.000000 0.000000 
0.000000 0.005900 -0.962630 -0.000000 0.000000 -0.000000 0.000000 0.005500 0.722100 -0.000000 0.000000 -0.000000 0.353845 0.001758 0.555896 1.660019 40.183000 -0.594657 -0.000001 -23.680966 -0.000000 -0.000002 -29.151681 -0.000004 -0.353845 0.001758 0.555896 1.660019 -40.183007 0.594656 -0.000001 23.680966 0.000001 -0.000002 29.151678 0.000004 0.247996 0.012400 -0.976726 0.000000 -0.000000 0.000000 0.000001 0.000000 -0.000000 -0.247996 0.012400 -0.976726 0.000000 0.000000 -0.000000 0.000001 -0.000000 0.000000 
0.000000 0.005900 -0.962630 -0.000000 0.000000 -0.000000 0.000000 0.005500 0.722100 -0.000000 0.000000 -0.000000 0.353845 0.001758 0.555896 1.914300 44.252140 -0.764407 -0.000003 -21.563495 -0.000000 -0.000002 -28.060712 -0.000004 -0.353845 0.001758 0.555896 1.914301 -44.252147 0.764406 -0.000002 21.563495 -0.000001 -0.000002 28.060712 0.000004 0.247996 0.012400 -0.976726 0.000000 -0.000000 0.000000 0.000001 0.000000 -0.000000 -0.247996 0.012400 -0.976726 0.000000 0.000000 -0.000000 0.000001 -0.000000 0.000000 
0.000000 0.005900 -0.962630 -0.000000 0.000000 -0.000000 0.000000 0.005500 0.722100 -0.000000 0.000000 -0.000000 0.353845 0.001758 0.555896 2.163199 47.757174 -0.942495 -0.000002 -19.487908 -0.000001 -0.000001 -26.911430 -0.000003 -0.353845 0.001758 0.555896 2.163198 -47.757178 0.942492 -0.000003 19.487911 -0.000000 -0.000002 26.911427 0.000003 0.247996 0.012400 -0.976726 0.000000 -0.000000 0.000000 0.000001 0.000000 -0.000000 -0.247996 0.012400 -0.976726 0.000000 0.000000 -0.000000 0.000001 -0.000000 0.000000 
0.000000 0.005900 -0.962630 -0.000000 0.000000 -0.000000 0.000000 0.005500 0.722100 -0.000000 0.000000 -0.000000 0.353845 0.001758 0.555896 2.392418 50.616503 -1.115172 -0.000002 -17.477030 0.000001 -0.000001 -25.705758 -0.000003 -0.353845 0.001758 0.555896 2.392418 -50.616514 1.115171 -0.000003 17.477032 0.000000 -0.000001 25.705760 0.000003 0.247996 0.012400 -0.976726 0.000000 -0.000000 0.000000 0.000001 0.000000 -0.000000 -0.247996 0.012400 -0.976726 0.000000 0.000000 -0.000000 0.000001 -0.000000 0.000000 
0.000000 0.005900 -0.962630 -0.000000 0.000000 -0.000000 0.000000 0.005500 0.722100 -0.000000 0.000000 -0.000000 0.353845 0.001758 0.555896 2.582803 52.754370 -1.263936 -0.000002 -15.553101 0.000001 -0.000001 -24.445527 -0.000003 -0.353845 0.001758 0.555896 2.582803 -52.754376 1.263935 -0.000004 15.553104 -0.000001 -0.000001 24.445532 0.000003 0.247996 0.012400 -0.976726 0.000000 -0.000000 0.000000 0.000001 0.000000 -0.000000 -0.247996 0.012400 -0.976726 0.000000 0.000000 -0.000000 0.000001 -0.000000 0.000000 
0.000000 0.005900 -0.962630 -0.000000 0.000000 -0.000000 0.000000 0.005500 0.722100 -0.000000 0.000000 -0.000000 0.353845 0.001758 0.555896 2.712096 54.096072 -1.367372 -0.000003 -13.737821 -0.000000 -0.000000 -23.132589 -0.000003 -0.353845 0.001758 0.555896 2.712095 -54.096078 1.367371 -0.000003 13.737818 -0.000001 -0.000001 23.132575 0.000003 0.247996 0.012400 -0.976726 0.000000 -0.000000 0.000000 0.000001 0.000000 -0.000000 -0.247996 0.012400 -0.976726 0.000000 0.000000 -0.000000 0.000001 -0.000000 0.000000 
0.000000 0.005900 -0.962630 -0.000000 0.000000 -0.000000 0.000000 0.005500 0.722100 -0.000000 0.000000 -0.000000 0.353845 0.001758 0.555896 2.759003 54.562416 -1.405341 -0.000005 -12.052416 0.000000 -0.000001 -21.768580 -0.000003 -0.353845 0.001758 0.555896 2.759005 -54.562427 1.405341 -0.000003 12.052421 -0.000002 -0.000001 21.768576 0.000003 0.247996 0.012400 -0.976726 0.000000 -0.000000 0.000000 0.000001 0.000000 -0.000000 -0.247996 0.012400 -0.976726 0.000000 0.000000 -0.000000 0.000001 -0.000000 0.000000 
0.000000 0.005900 -0.962630 -0.000000 0.000000 -0.000000 0.000000 0.005500 0.722100 -0.000000 0.000000 -0.000000 0.353845 0.001758 0.555896 2.721656 54.192022 -1.375093 -0.000006 -10.508858 0.000001 -0.000000 -20.356836 -0.000002 -0.353845 0.001758 0.555896 2.721657 -54.192029 1.375094 -0.000005 10.508862 -0.000002 -0.000001 20.356836 0.000002 0.247996 0.012400 -0.976726 0.000000 -0.000000 0.000000 0.000001 0.000000 -0.000000 -0.247996 0.012400 -0.976726 0.000000 0.000000 -0.000000 0.000001 -0.000000 0.000000 
